<svg width="96" height="16" viewBox="0 0 96 16" fill="none" xmlns="http://www.w3.org/2000/svg">
<path d="M8.992 12.832V8.768H13.84V6.88H8.992V3.296H14.464V1.408H1.552V3.296H6.992V6.88H2.304V8.768H6.992V12.832H0.784V14.704H15.28V12.832H8.992ZM23.024 0.671999V13.008C23.024 13.312 22.896 13.424 22.544 13.424C22.192 13.44 21.008 13.44 19.968 13.392C20.256 13.92 20.608 14.816 20.72 15.376C22.272 15.376 23.36 15.312 24.112 15.008C24.816 14.704 25.088 14.176 25.088 13.008V0.671999H23.024ZM26.832 4.848C28.096 7.184 29.312 10.192 29.632 12.128L31.712 11.312C31.312 9.312 30 6.416 28.704 4.144L26.832 4.848ZM18.832 4.32C18.496 6.4 17.696 9.2 16.416 10.816C16.912 11.04 17.792 11.488 18.272 11.808C19.6 10.048 20.464 7.072 21.008 4.688L18.832 4.32ZM36.96 3.04V5.296H34.896V3.04H36.96ZM34.896 9.36V6.992H36.96V9.36H34.896ZM38.72 11.088V1.312H33.136V12.464H34.896V11.088H38.72ZM41.616 8.656C41.68 8.032 41.696 7.424 41.696 6.848V6.608H45.136V8.656H41.616ZM45.136 2.848V4.896H41.696V2.848H45.136ZM47.024 1.088H39.824V6.848C39.824 9.28 39.584 12.256 36.896 14.24C37.296 14.48 38.032 15.136 38.32 15.504C40.112 14.192 40.976 12.288 41.376 10.368H45.136V13.184C45.136 13.456 45.04 13.552 44.752 13.552C44.48 13.568 43.504 13.584 42.64 13.536C42.912 14.016 43.232 14.848 43.312 15.376C44.64 15.376 45.552 15.328 46.192 15.024C46.816 14.72 47.024 14.208 47.024 13.2V1.088ZM50.944 12.064V8.928H53.488V12.064H50.944ZM53.488 7.28H50.944V4.688H53.488V7.28ZM58.576 2.912C58.816 2.24 59.024 1.568 59.2 0.879999L57.376 0.464C56.912 2.336 56.144 4.272 55.216 5.616V3.024H52.736C53.008 2.336 53.296 1.536 53.568 0.735999L51.488 0.447999C51.424 1.2 51.232 2.224 51.024 3.024H49.216V14.912H50.944V13.744H55.216V6.272C55.648 6.56 56.192 6.928 56.448 7.168C56.944 6.48 57.44 5.6 57.856 4.64H61.28C61.104 10.288 60.896 12.688 60.432 13.2C60.224 13.408 60.048 13.472 59.728 13.472C59.312 13.472 58.368 13.472 57.344 13.376C57.68 13.904 57.936 14.704 57.968 15.232C58.912 15.264 59.872 15.28 60.48 15.2C61.12 15.088 61.568 14.912 62.016 14.32C62.672 13.472 62.848 10.928 63.056 3.776C63.072 3.552 63.072 2.912 63.072 2.912H58.576ZM60.416 10.208C59.92 9.28 58.864 7.76 58.064 6.656L56.576 7.504C57.36 8.672 58.352 10.24 58.8 11.2L60.416 10.208ZM79.168 3.136C78.704 2.384 77.712 1.328 76.864 0.559999L75.44 1.44C76.272 2.256 77.232 3.376 77.632 4.128L79.168 3.136ZM68.56 0.575999C67.6 2.992 65.92 5.344 64.192 6.816C64.528 7.28 65.072 8.304 65.248 8.752C65.824 8.24 66.368 7.632 66.912 6.96V15.36H68.896V4.112C69.472 3.136 69.968 2.144 70.384 1.168L68.56 0.575999ZM79.408 6.32L79.136 4.528L74.576 5.12C74.464 3.76 74.4 2.256 74.368 0.688H72.432C72.48 2.368 72.576 3.936 72.688 5.376L69.456 5.808L69.728 7.648L72.88 7.216C73.456 12.096 74.72 15.104 77.424 15.36C78.32 15.408 79.184 14.672 79.584 11.584C79.232 11.392 78.384 10.912 78.032 10.496C77.904 12.272 77.712 13.072 77.344 13.04C76.064 12.88 75.216 10.512 74.768 6.96L79.408 6.32ZM85.056 11.248V9.712H83.776V8.352H85.344V6.816H84.288C84.512 6.064 84.768 5.12 85.008 4.256L83.68 3.968H85.328V2.432H84.016C83.824 1.872 83.504 1.184 83.216 0.624L81.648 1.088C81.84 1.488 82.048 1.968 82.208 2.432H80.672V3.968H83.6C83.472 4.816 83.232 5.984 83.008 6.816H81.664L82.64 6.544C82.64 5.856 82.464 4.816 82.176 4.032L80.944 4.368C81.184 5.136 81.328 6.128 81.328 6.816H80.576V8.352H82.096V9.712H80.784V11.248H82.064C81.968 12.336 81.632 13.536 80.608 14.224C80.976 14.512 81.488 15.088 81.712 15.424C83.072 14.368 83.6 12.768 83.744 11.248H85.056ZM87.84 3.952C87.856 2.832 87.872 1.648 87.872 0.431999H86.416C86.432 1.648 86.432 2.832 86.416 3.952H85.696V5.584H86.368C86.224 9.232 85.744 12.256 84.368 14.32C84.688 14.544 85.376 15.136 85.6 15.392C87.088 12.944 87.6 9.648 87.776 5.584H88.416C88.352 11.088 88.272 12.96 88.032 13.36C87.92 13.584 87.808 13.648 87.616 13.648C87.408 13.648 87.072 13.648 86.688 13.6C86.928 14.032 87.072 14.688 87.088 15.152C87.616 15.152 88.096 15.152 88.448 15.072C88.864 14.992 89.136 14.848 89.392 14.4C89.776 13.76 89.84 11.456 89.936 4.688C89.936 4.496 89.952 3.952 89.952 3.952H87.84ZM95.472 8.368V6.832H94.432C94.608 6.08 94.832 5.104 95.056 4.224L93.712 3.952H95.264V2.416H93.856C93.648 1.808 93.296 1.088 93.008 0.511999L91.472 0.992C91.68 1.424 91.888 1.936 92.08 2.416H90.592V3.952H93.632C93.536 4.816 93.312 6 93.12 6.832H91.552L92.64 6.512C92.624 5.824 92.432 4.768 92.144 3.984L90.928 4.304C91.184 5.104 91.328 6.128 91.328 6.832H90.528V8.368H92.144V9.968H90.816V11.504H92.144V15.376H93.856V11.504H95.248V9.968H93.856V8.368H95.472Z" fill="#333333"/>
</svg>
